<svg id="Layer_1" data-name="Layer 1" xmlns="http://www.w3.org/2000/svg" viewBox="0 0 200 150"><defs><style>.cls-1{fill:#fff;}.cls-2{fill:#3166a8;}.cls-3{fill:#98484d;}</style></defs><path class="cls-1" d="M75.63,62.92c-8.85,0-17.71-.06-26.56,0-6.74.06-13.48.28-20.22.47-2.23.06-4.45.26-6.68.39-.4,0-.81.11-.79-.54.08-2.23-.17-4.46.11-6.69a4.88,4.88,0,0,1,1-2.4q5-6.66,10.13-13.18a5.92,5.92,0,0,1,4.33-2.42c4-.33,8-.73,12-1A3.19,3.19,0,0,1,52.52,40a3,3,0,0,0,3.18,2.43c5.57.19,11.14.64,16.69,1.22a2.26,2.26,0,0,1,2,1.24c2.55,4.63,5.18,9.22,7.79,13.82.43.76,1,1.47,1.38,2.23.65,1.16.4,1.58-1,1.6-2.31,0-4.63,0-7,0Z"/><path class="cls-2" d="M101.78,64.37l-8,5.68Q72.93,84.89,52.06,99.75c-.89.64-1.2.61-1.62-.43a4.44,4.44,0,0,1-.22-3,22.34,22.34,0,0,1,1.53-4.14,3.31,3.31,0,0,0-.21-3.57c-1.22-2-2.21-4.06-3.37-6.06a5.22,5.22,0,0,1-.11-5.24c.57-1.14.41-1.29-.83-1.51A19.35,19.35,0,0,0,37,76.47c-.48.17-1,.18-1.52.32-3,.86-5.1-.18-6.61-3.2,24.28-3.45,48.58-6.26,72.82-9.58Z"/><path class="cls-1" d="M123.3,67.56c1.75,0,3.51,0,5.27,0,1,0,1.45.34,1.6,1.43,1.39,10.25,2.84,20.5,4.27,30.74.42,3,.42,3-2.57,3-1.6,0-3.2-.05-4.79,0-1.06,0-1.42-.43-1.46-1.41-.05-1.31-.21-2.62-.26-3.93,0-.7-.15-1-1-1.08-2.11-.15-2.57.13-2.77,2.21a27.43,27.43,0,0,0-.09,2.87c0,.89-.31,1.33-1.25,1.33-2.35,0-4.71,0-7.06,0-.91,0-1.25-.44-1.12-1.38q1.07-7.62,2.07-15.26c.64-4.94,1.23-9.88,1.87-14.82.12-.94.33-1.87.53-2.8.14-.66.6-.85,1.25-.84,1.83,0,3.67,0,5.51,0Zm-.06,9.28a83.57,83.57,0,0,1-1.15,10.77c-.34,2.19-.39,2.14,1.8,2.14.75,0,1-.21.91-.94-.24-3.22-.37-6.44-.91-9.63A4.81,4.81,0,0,0,123.24,76.84Z"/><path class="cls-1" d="M172.8,84.21c0-2.79,0-5.58,0-8.37a8.84,8.84,0,0,1,8.8-8.86c2.47-.08,5-.23,7.29.82,3.17,1.41,5.06,3.67,5,7.37a64.89,64.89,0,0,0,.51,6.66c.06.65-.06.91-.79.9q-3.9-.08-7.79,0c-.7,0-.86-.22-.85-.88,0-2.43,0-4.87,0-7.3,0-.89,0-1.81-1.35-1.82-1,0-1.56.29-1.56,1.42,0,7.22,0,14.43,0,21.65,0,.78.29,1.38,1.11,1.43s1.5-.21,1.66-1.17a29.81,29.81,0,0,0,.13-6c0-1.2.26-1.54,1.48-1.48,2.35.11,4.71,0,7.06,0,.43,0,.92-.12.85.61a63.78,63.78,0,0,1-.71,7.48c-.72,3.42-3.32,5.22-6.54,6.07a17.6,17.6,0,0,1-6.55.19c-4.2-.51-6.91-2.93-7.53-8A107.08,107.08,0,0,1,172.8,84.21Z"/><path class="cls-1" d="M94.89,89.91c1.16,0,2.32,0,3.47,0,.66,0,.9.13.88.84-.06,1.51,0,3,0,4.55,0,1,.32,1.88,1.42,2s1.59-.73,1.84-1.66A5.92,5.92,0,0,0,99.91,89c-2.14-1.46-4.33-2.85-6.37-4.45A8.37,8.37,0,0,1,90.4,78a2.41,2.41,0,0,1,.84-1.89c2.74-2.79,5.46-5.6,8.18-8.4a2.3,2.3,0,0,1,1.8-.76,14.61,14.61,0,0,1,3.43.39c3.59.92,5.39,3.06,5.75,6.82.1,1.07,0,2.16.09,3.23,0,.54-.17.67-.68.67-2.39,0-4.79,0-7.18,0-.61,0-.74-.26-.72-.8,0-1,0-2.07,0-3.11a1.23,1.23,0,0,0-1.39-1.4c-.83,0-1.2.55-1.33,1.4a5.5,5.5,0,0,0,3,6.25,50.72,50.72,0,0,1,4.85,3.26A8.86,8.86,0,0,1,111,90.51a31,31,0,0,1-.07,6.67,5.86,5.86,0,0,1-3.8,4.83,15.19,15.19,0,0,1-11.4.27c-3.24-1.18-4.67-3.62-4.86-7-.1-1.59-.25-3.18-.45-4.76-.07-.58.14-.67.63-.66C92.34,89.92,93.61,89.91,94.89,89.91Z"/><path class="cls-1" d="M154.58,85c0-5.43,0-10.85,0-16.28,0-.83.2-1.06,1-1.05,4.31.05,8.63,0,12.94,0,.79,0,1,.21,1,1-.06,1.59-.05,3.19,0,4.79,0,.7-.12,1-.9.94-1.27-.07-2.56,0-3.83,0-.64,0-.91.1-.89.83.06,1.75,0,3.51,0,5.26,0,.63.18.83.81.81,1.32,0,2.64,0,3.95,0,.56,0,.78.13.77.73-.05,1.56-.07,3.11,0,4.67,0,.92-.42,1.31-1.29,1.33-1.15,0-2.31.06-3.47,0-.56,0-.75.14-.74.73,0,2,0,4.07,0,6.1,0,.64.19.82.82.8,1.63,0,3.27,0,4.91,0,.55,0,.88,0,.86.75-.06,1.63,0,3.27,0,4.91a1.26,1.26,0,0,1-1.46,1.44c-4.47,0-8.94,0-13.41,0-1,0-1-.59-1-1.33C154.59,95.89,154.58,90.43,154.58,85Z"/><path class="cls-2" d="M29.58,39.57a105.26,105.26,0,0,0-8.3,10c-.24.32-.46.65-.7,1a15,15,0,0,0-3.06,9.3,15.76,15.76,0,0,0,3.91,11.5c2.44,2.77,4.51,5.88,6.69,8.88a3,3,0,0,0,3.31,1.27c3.13-.64,6.24-1.34,9.41-1.75,1.61-.21,1.62-.23,1.75,1.33A10.88,10.88,0,0,0,44,85.54c.82,1.42,1.59,2.87,2.53,4.2a3.45,3.45,0,0,1,.31,3.61,14.85,14.85,0,0,0-.93,2.7,8.22,8.22,0,0,0,.34,4.93c2,5.23,4.11,10.45,6.11,15.7.24.63,1.28,1.52,0,2.11a2.34,2.34,0,0,1-3.16-1.24q-2.3-5.51-4.57-11c-.54-1.32-1.1-2.64-1.59-4a10.77,10.77,0,0,1,.53-9.14,2.35,2.35,0,0,0-.12-2.65c-1.08-1.72-2.07-3.49-3-5.28a1.17,1.17,0,0,0-1.6-.7c-3.27.93-6.67,1.19-10,2a1.33,1.33,0,0,1-1.55-.61C23.19,80,18.86,74,15,67.67a9.7,9.7,0,0,1-1.59-5.77,30.6,30.6,0,0,0-.12-4.78A6.48,6.48,0,0,1,14.33,53a100.38,100.38,0,0,1,9.92-13,1.3,1.3,0,0,1,1.06-.43Z"/><path class="cls-1" d="M83.16,95.53a1.66,1.66,0,0,1-.81,1.91c-1.2.78-2.36,1.63-3.57,2.4a1.74,1.74,0,0,0-.9,1.68,9.76,9.76,0,0,1-3,7.61c-1.57,1.58-2.92,3.37-4.36,5.08a8.27,8.27,0,0,1-5.86,3c-1.94.17-3.86.56-5.78.88-1.66.27-1.75.24-2.35-1.3-.38-1-.73-2-1.14-3a2.18,2.18,0,0,1,.53-2.6q6-6.12,11.9-12.29c4.31-4.47,8.61-9,12.94-13.44.28-.29.49-.87,1-.74s.36.77.41,1.17C82.48,89.2,82.83,92.48,83.16,95.53Z"/><path class="cls-1" d="M147,88.72c0,4.19,0,8.38,0,12.57,0,1.1-.34,1.46-1.44,1.41-1.95-.08-3.91,0-5.86,0-1.54,0-1.73-.19-1.74-1.72V76.54c0-2.13,0-2.1-2.08-2.14-1,0-2.26.45-2.87-.2s-.15-1.91-.18-2.89,0-1.84,0-2.76c0-.74.22-.94,1-.93,4.07,0,8.14,0,12.21,0,1.71,0,3.43-.07,5.14-.06,1.38,0,1.57.24,1.55,1.62s0,2.63,0,4c0,.93-.34,1.32-1.26,1.28s-2,.06-3,0c-1.15-.13-1.49.38-1.48,1.42C147,80.1,147,84.41,147,88.72Z"/><path class="cls-3" d="M19.06,39.73C16.51,43.11,14,46.49,11.59,50A12.45,12.45,0,0,0,9.28,57.7c.09,2.51-.12,5,.43,7.51a17.67,17.67,0,0,0,2.8,6.26c3.33,4.86,6.38,9.91,10,14.56-1.72,1.07-2.66.87-3.52-.78a53.55,53.55,0,0,0-4.09-6c-2.8-3.92-5.48-7.93-8.07-12A5.06,5.06,0,0,1,6,64.56c-.06-2.19-.17-4.38-.39-6.56a9.74,9.74,0,0,1,2.18-7c2.59-3.49,5.23-6.94,8-10.28C16.85,39.48,17.59,39.25,19.06,39.73Z"/><path class="cls-3" d="M43.83,118.84a2.42,2.42,0,0,1-2.7-1.87c-1.53-5.4-4.13-10.38-6-15.63a7.52,7.52,0,0,1,.27-6.4c.79-1.53,1.36-3,.24-4.56a.49.49,0,0,1,.06-.74,1.82,1.82,0,0,1,1.64-.49,3.66,3.66,0,0,1,2,3.72c-.18.52-.35,1-.56,1.57a9.8,9.8,0,0,0,0,7.09c1.83,5.37,4,10.61,6.1,15.87C45.38,118.86,45.4,118.85,43.83,118.84Z"/></svg>